<?xml version="1.0" encoding="UTF-8" standalone="no"?>
<!DOCTYPE svg PUBLIC "-//W3C//DTD SVG 1.1//EN" "http://www.w3.org/Graphics/SVG/1.1/DTD/svg11.dtd">
<svg version="1.1" xmlns="http://www.w3.org/2000/svg" xmlns:xlink="http://www.w3.org/1999/xlink" preserveAspectRatio="xMidYMid meet" viewBox="4.003945147679346 5.001097046413477 95.05643459915616 90.30432489451482" width="64" height="64"><defs><path d="M54.88 12.44L56.5 12.6L58.09 12.83L59.66 13.12L61.21 13.47L62.74 13.88L64.24 14.35L65.71 14.87L67.16 15.45L68.58 16.09L69.98 16.78L71.34 17.52L72.66 18.31L73.96 19.15L75.22 20.03L76.44 20.97L77.63 21.95L78.77 22.97L79.88 24.03L80.95 25.14L81.97 26.29L82.95 27.47L83.88 28.7L84.77 29.96L85.61 31.25L86.4 32.58L87.14 33.94L87.83 35.33L88.46 36.75L89.04 38.2L89.57 39.68L90.03 41.18L90.44 42.7L90.79 44.25L91.08 45.83L91.31 47.42L91.48 49.03L91.58 50.66L91.61 52.31L91.58 53.95L91.48 55.58L91.31 57.19L91.08 58.79L90.79 60.36L90.44 61.91L90.03 63.43L89.57 64.93L89.04 66.41L88.46 67.86L87.83 69.28L87.14 70.67L86.4 72.03L85.61 73.36L84.77 74.65L83.88 75.91L82.95 77.14L81.97 78.32L80.95 79.47L79.88 80.58L78.77 81.64L77.63 82.66L76.44 83.64L75.22 84.58L73.96 85.46L72.66 86.3L71.34 87.09L69.98 87.83L68.58 88.52L67.16 89.16L65.71 89.74L64.24 90.26L62.74 90.73L61.21 91.14L59.66 91.49L58.09 91.78L56.5 92.01L54.88 92.17L53.26 92.27L51.61 92.31L49.96 92.27L48.33 92.17L46.72 92.01L45.13 91.78L43.56 91.49L42.01 91.14L40.48 90.73L38.98 90.26L37.5 89.74L36.05 89.16L34.63 88.52L33.24 87.83L31.88 87.09L30.55 86.3L29.26 85.46L28 84.58L26.78 83.64L25.59 82.66L24.44 81.64L23.34 80.58L22.27 79.47L21.25 78.32L20.27 77.14L19.34 75.91L18.45 74.65L17.61 73.36L16.82 72.03L16.08 70.67L15.39 69.28L14.76 67.86L14.18 66.41L13.65 64.93L13.18 63.43L12.77 61.91L12.42 60.36L12.13 58.79L11.91 57.19L11.74 55.58L11.64 53.95L11.61 52.31L11.64 50.66L11.74 49.03L11.91 47.42L12.13 45.83L12.42 44.25L12.77 42.7L13.18 41.18L13.65 39.68L14.18 38.2L14.76 36.75L15.39 35.33L16.08 33.94L16.82 32.58L17.61 31.25L18.45 29.96L19.34 28.7L20.27 27.47L21.25 26.29L22.27 25.14L23.34 24.03L24.44 22.97L25.59 21.95L26.78 20.97L28 20.03L29.26 19.15L30.55 18.31L31.88 17.52L33.24 16.78L34.63 16.09L36.05 15.45L37.5 14.87L38.98 14.35L40.48 13.88L42.01 13.47L43.56 13.12L45.13 12.83L46.72 12.6L48.33 12.44L49.96 12.34L51.61 12.31L53.26 12.34L54.88 12.44ZM48.96 20.93L47.66 21.06L46.38 21.25L45.11 21.49L43.86 21.78L42.64 22.12L41.43 22.51L40.24 22.94L39.07 23.42L37.93 23.94L36.82 24.51L35.73 25.12L34.67 25.77L33.63 26.47L32.63 27.2L31.65 27.97L30.71 28.77L29.8 29.62L28.92 30.49L28.08 31.4L27.27 32.35L26.5 33.32L25.77 34.33L25.08 35.36L24.43 36.42L23.81 37.51L23.25 38.63L22.72 39.77L22.24 40.94L21.81 42.12L21.42 43.33L21.08 44.56L20.79 45.81L20.55 47.08L20.37 48.36L20.23 49.66L20.15 50.98L20.12 52.31L20.15 53.63L20.23 54.95L20.37 56.25L20.55 57.53L20.79 58.8L21.08 60.05L21.42 61.28L21.81 62.49L22.24 63.67L22.72 64.84L23.25 65.98L23.81 67.1L24.43 68.19L25.08 69.25L25.77 70.28L26.5 71.29L27.27 72.26L28.08 73.21L28.92 74.12L29.8 75L30.71 75.84L31.65 76.64L32.63 77.41L33.63 78.15L34.67 78.84L35.73 79.49L36.82 80.1L37.93 80.67L39.07 81.19L40.24 81.67L41.43 82.11L42.64 82.49L43.86 82.83L45.11 83.12L46.38 83.36L47.66 83.55L48.96 83.68L50.28 83.77L51.61 83.79L52.94 83.77L54.25 83.68L55.55 83.55L56.84 83.36L58.1 83.12L59.35 82.83L60.58 82.49L61.79 82.11L62.98 81.67L64.14 81.19L65.28 80.67L66.4 80.1L67.49 79.49L68.55 78.84L69.59 78.15L70.59 77.41L71.57 76.64L72.51 75.84L73.42 75L74.3 74.12L75.14 73.21L75.95 72.26L76.72 71.29L77.45 70.28L78.14 69.25L78.79 68.19L79.4 67.1L79.97 65.98L80.5 64.84L80.97 63.67L81.41 62.49L81.8 61.28L82.13 60.05L82.42 58.8L82.66 57.53L82.85 56.25L82.99 54.95L83.07 53.63L83.1 52.31L83.07 50.98L82.99 49.66L82.85 48.36L82.66 47.08L82.42 45.81L82.13 44.56L81.8 43.33L81.41 42.12L80.97 40.94L80.5 39.77L79.97 38.63L79.4 37.51L78.79 36.42L78.14 35.36L77.45 34.33L76.72 33.32L75.95 32.35L75.14 31.4L74.3 30.49L73.42 29.62L72.51 28.77L71.57 27.97L70.59 27.2L69.59 26.47L68.55 25.77L67.49 25.12L66.4 24.51L65.28 23.94L64.14 23.42L62.98 22.94L61.79 22.51L60.58 22.12L59.35 21.78L58.1 21.49L56.84 21.25L55.55 21.06L54.25 20.93L52.94 20.84L51.61 20.82L50.28 20.84L48.96 20.93Z" id="cyG9VLqy"></path><path d="M50.37 49.44C37.41 49.44 30.2 49.44 28.76 49.44C26.94 49.44 25.47 50.91 25.47 52.73C25.47 54.55 26.94 56.02 28.76 56.02C31.25 56.02 51.18 56.02 53.67 56.02C55.49 56.02 56.96 54.55 56.96 52.73C56.96 50.6 56.96 33.59 56.96 31.46C56.96 29.64 55.49 28.17 53.67 28.17C51.85 28.17 50.37 29.64 50.37 31.46C50.37 33.86 50.37 39.85 50.37 49.44Z" id="c4yhomM3E"></path><path d="M92.49 18.94C91.96 18.41 87.71 14.18 87.18 13.66C87.09 13.57 86.97 13.56 86.88 13.63C86.81 13.68 86.47 13.95 85.85 14.44L85.13 15.02C82.45 17.14 80.97 18.32 80.67 18.56C80.75 17.96 80.57 17.28 80.11 16.7C79.33 15.72 78.05 15.43 77.25 16.06C76.45 16.7 76.44 18.01 77.22 19C78 19.98 79.29 20.27 80.09 19.64C80.14 19.59 80.19 19.54 80.24 19.49C80.27 19.48 80.29 19.47 80.31 19.46C80.64 19.19 82.3 17.88 85.28 15.51L90.25 20.45C88.31 22 87.23 22.85 87.01 23.02C87.09 22.43 86.91 21.74 86.45 21.17C85.67 20.18 84.39 19.9 83.59 20.53C82.79 21.17 82.78 22.48 83.56 23.47C84.34 24.45 85.63 24.74 86.42 24.1C86.44 24.09 86.45 24.08 86.47 24.06C86.47 24.06 86.48 24.06 86.48 24.06C86.77 23.83 88.19 22.7 90.74 20.67L91.46 20.1C92.08 19.61 92.42 19.34 92.49 19.28C92.54 19.24 92.57 19.18 92.57 19.12C92.57 19.05 92.54 18.99 92.49 18.94Z" id="i4j2BZMo6z"></path><path d="M80.06 39C71.23 39 64.06 31.83 64.06 23C64.06 14.17 71.23 7 80.06 7C88.89 7 96.06 14.17 96.06 23C96.06 31.83 88.89 39 80.06 39Z" id="ctW7fRUpF"></path><mask id="maski1OtCJm2jv" x="60.06" y="3" width="40" height="40" maskUnits="userSpaceOnUse"><rect x="60.06" y="3" width="40" height="40" fill="white"></rect><use xlink:href="#ctW7fRUpF" opacity="1" fill="black"></use></mask><path d="M22 39C13.17 39 6 31.83 6 23C6 14.17 13.17 7 22 7C30.83 7 38 14.17 38 23C38 31.83 30.83 39 22 39Z" id="a2LeGoLt2s"></path><mask id="maskb1xNsiqVr" x="2" y="3" width="40" height="40" maskUnits="userSpaceOnUse"><rect x="2" y="3" width="40" height="40" fill="white"></rect><use xlink:href="#a2LeGoLt2s" opacity="1" fill="black"></use></mask><path d="M14.81 13.04C15 13.02 16.49 12.92 16.68 12.91C16.73 13.58 17.48 14.08 18.36 14.02C18.36 14.11 18.4 14.59 18.46 15.45C16.1 14.82 14.88 14.01 14.81 13.04Z" id="b3VbRhtWIn"></path><path d="M16.19 20.41L16.99 21.2L17.33 22.22L17.13 23.27L16.45 24.17L15.39 24.81L14.06 25.12L12.7 25L11.56 24.51L10.76 23.72L10.41 22.7L10.61 21.65L11.3 20.75L12.36 20.1L13.69 19.8L15.05 19.91L16.19 20.41ZM12.69 21.67L12.37 22.08L12.28 22.57L12.44 23.04L12.81 23.4L13.33 23.63L13.96 23.68L14.57 23.54L15.06 23.24L15.37 22.83L15.46 22.35L15.31 21.88L14.94 21.51L14.41 21.29L13.79 21.23L13.18 21.37L12.69 21.67Z" id="ar3Lkm9NO"></path><path d="M20.14 16.57C20.09 15.89 19.34 15.39 18.46 15.45C18.45 15.31 18.37 14.16 18.36 14.02C20.27 13.88 21.9 14.97 22 16.43C21.63 16.46 20.32 16.55 20.14 16.57Z" id="a1NIpjBaU"></path><path d="M16.68 12.91C16.68 12.91 16.68 12.91 16.68 12.91C17.07 18.49 17.29 21.6 17.33 22.22C17.33 22.22 17.33 22.22 17.33 22.22C16.21 22.29 15.59 22.34 15.46 22.35C15.46 22.35 15.46 22.35 15.46 22.35C15.07 16.76 14.86 13.66 14.81 13.04C14.81 13.04 14.81 13.04 14.81 13.04C15.93 12.96 16.56 12.91 16.68 12.91Z" id="f4fptyrJhi"></path></defs><g><g><use xlink:href="#cyG9VLqy" opacity="1" fill="#ecf0f1" fill-opacity="1"></use><g><use xlink:href="#cyG9VLqy" opacity="1" fill-opacity="0" stroke="#000000" stroke-width="1" stroke-opacity="0"></use></g></g><g><use xlink:href="#c4yhomM3E" opacity="1" fill="#ecf0f1" fill-opacity="1"></use><g><use xlink:href="#c4yhomM3E" opacity="1" fill-opacity="0" stroke="#000000" stroke-width="1" stroke-opacity="0"></use></g></g><g><use xlink:href="#i4j2BZMo6z" opacity="1" fill="#ecf0f1" fill-opacity="1"></use><g><use xlink:href="#i4j2BZMo6z" opacity="1" fill-opacity="0" stroke="#000000" stroke-width="1" stroke-opacity="0"></use></g></g><g><g mask="url(#maski1OtCJm2jv)"><use xlink:href="#ctW7fRUpF" opacity="1" fill-opacity="0" stroke="#ecf0f1" stroke-width="4" stroke-opacity="1"></use></g></g><g><g mask="url(#maskb1xNsiqVr)"><use xlink:href="#a2LeGoLt2s" opacity="1" fill-opacity="0" stroke="#ecf0f1" stroke-width="4" stroke-opacity="1"></use></g></g><g><g><use xlink:href="#b3VbRhtWIn" opacity="1" fill="#ecf0f1" fill-opacity="1"></use><g><use xlink:href="#b3VbRhtWIn" opacity="1" fill-opacity="0" stroke="#000000" stroke-width="1" stroke-opacity="0"></use></g></g><g><g><use xlink:href="#ar3Lkm9NO" opacity="1" fill="#ecf0f1" fill-opacity="1"></use><g><use xlink:href="#ar3Lkm9NO" opacity="1" fill-opacity="0" stroke="#000000" stroke-width="1" stroke-opacity="0"></use></g></g><g><use xlink:href="#a1NIpjBaU" opacity="1" fill="#ecf0f1" fill-opacity="1"></use><g><use xlink:href="#a1NIpjBaU" opacity="1" fill-opacity="0" stroke="#000000" stroke-width="1" stroke-opacity="0"></use></g></g><g><use xlink:href="#f4fptyrJhi" opacity="1" fill="#ecf0f1" fill-opacity="1"></use><g><use xlink:href="#f4fptyrJhi" opacity="1" fill-opacity="0" stroke="#000000" stroke-width="1" stroke-opacity="0"></use></g></g></g></g></g></svg>