<?xml version="1.0" encoding="UTF-8" standalone="no"?>
<!DOCTYPE svg PUBLIC "-//W3C//DTD SVG 1.1//EN" "http://www.w3.org/Graphics/SVG/1.1/DTD/svg11.dtd">
<svg version="1.1" xmlns="http://www.w3.org/2000/svg" xmlns:xlink="http://www.w3.org/1999/xlink" preserveAspectRatio="xMidYMid meet" viewBox="1 0.9999999999999929 64 64" width="64" height="64"><defs><path d="M2 50L14 50L14 62L2 62L2 50Z" id="c7hbiWjxKN"></path><path d="M14 38L26 38L26 50L14 50L14 38Z" id="eUD855wvE"></path><path d="M26 26L38 26L38 38L26 38L26 26Z" id="a57EmzlsPC"></path><path d="M38 14L50 14L50 26L38 26L38 14Z" id="b1JbXCVVcN"></path><path d="M50 2L62 2L62 14L50 14L50 2Z" id="aX741efN4"></path><path d="M14 14L26 14L26 26L14 26L14 14Z" id="aLDTqYUdt"></path><path d="M2 2L14 2L14 14L2 14L2 2Z" id="jwKDY217e"></path><path d="M38 38L50 38L50 50L38 50L38 38Z" id="b1M3OqX1Gj"></path><path d="M50 50L62 50L62 62L50 62L50 50Z" id="c2sJPydDuF"></path></defs><g><g><use xlink:href="#c7hbiWjxKN" opacity="1" fill="#2c3e50" fill-opacity="1"></use></g><g><use xlink:href="#eUD855wvE" opacity="1" fill="#2c3e50" fill-opacity="1"></use></g><g><use xlink:href="#a57EmzlsPC" opacity="1" fill="#2c3e50" fill-opacity="1"></use></g><g><use xlink:href="#b1JbXCVVcN" opacity="1" fill="#2c3e50" fill-opacity="1"></use></g><g><use xlink:href="#aX741efN4" opacity="1" fill="#2c3e50" fill-opacity="1"></use></g><g><use xlink:href="#aLDTqYUdt" opacity="1" fill="#2c3e50" fill-opacity="1"></use></g><g><use xlink:href="#jwKDY217e" opacity="1" fill="#2c3e50" fill-opacity="1"></use></g><g><use xlink:href="#b1M3OqX1Gj" opacity="1" fill="#2c3e50" fill-opacity="1"></use></g><g><use xlink:href="#c2sJPydDuF" opacity="1" fill="#2c3e50" fill-opacity="1"></use></g></g></svg>